<svg width="48" height="48" viewBox="0 0 48 48" fill="none" xmlns="http://www.w3.org/2000/svg">
<mask id="mask0_301_3880" style="mask-type:luminance" maskUnits="userSpaceOnUse" x="6" y="10" width="36" height="28">
<path d="M42 10H6V38H42V10Z" fill="white"/>
</mask>
<g mask="url(#mask0_301_3880)">
<path d="M39.24 13.34H28.62C27.9788 13.3403 27.3596 13.1055 26.88 12.68L25.18 11.16C24.3356 10.4129 23.2474 10.0004 22.12 10H14.76C14.042 9.98926 13.3489 10.2629 12.8318 10.7612C12.3148 11.2595 12.0158 11.9421 12 12.66V29.34C12.0158 30.058 12.3148 30.7404 12.8318 31.2388C13.3489 31.7372 14.042 32.0108 14.76 32H39.24C39.958 32.0108 40.6512 31.7372 41.1682 31.2388C41.6852 30.7404 41.9842 30.058 42 29.34V16C41.9948 15.6437 41.9192 15.292 41.7774 14.965C41.6356 14.6381 41.4306 14.3425 41.174 14.0952C40.9174 13.848 40.6144 13.6539 40.2824 13.5243C39.9506 13.3947 39.5962 13.332 39.24 13.34Z" fill="#C3D9FA"/>
<path d="M33.24 19.3403H22.62C21.9788 19.3406 21.3596 19.1058 20.88 18.6803L19.18 17.1603C18.3357 16.4132 17.2474 16.0007 16.12 16.0003H8.76C8.042 15.9896 7.34886 16.2632 6.83182 16.7615C6.31478 17.2598 6.01576 17.9424 6 18.6603V35.3404C6.01576 36.0582 6.31478 36.7408 6.83182 37.239C7.34886 37.7374 8.042 38.011 8.76 38.0004H33.24C33.958 38.011 34.6512 37.7374 35.1682 37.239C35.6852 36.7408 35.9842 36.0582 36 35.3404V22.0004C35.9948 21.644 35.9192 21.2922 35.7774 20.9654C35.6356 20.6384 35.4306 20.3428 35.174 20.0956C34.9174 19.8483 34.6144 19.6542 34.2824 19.5246C33.9506 19.395 33.5962 19.3323 33.24 19.3403Z" fill="#3F86F0"/>
</g>
</svg>
