<svg width="48" height="48" viewBox="0 0 48 48" fill="none" xmlns="http://www.w3.org/2000/svg">
<path d="M6 30V18C6 17.1716 5.32842 16.5 4.5 16.5C3.67158 16.5 3 17.1716 3 18V30C3 30.8284 3.67158 31.5 4.5 31.5C5.32842 31.5 6 30.8284 6 30Z" fill="#3F86F0"/>
<path d="M45 30V18C45 17.1716 44.3284 16.5 43.5 16.5C42.6716 16.5 42 17.1716 42 18V30C42 30.8284 42.6716 31.5 43.5 31.5C44.3284 31.5 45 30.8284 45 30Z" fill="#3F86F0"/>
<path d="M27.105 3H21C18.0868 3.01358 15.2781 4.08642 13.0977 6.01842C11.07 7.81506 9.71456 10.2406 9.24176 12.896C9.18056 13.2397 8.88818 13.5 8.53908 13.5C7.9652 13.5 7.5 13.9652 7.5 14.5391V33.75C7.5 34.1642 7.83578 34.5 8.25 34.5C8.66422 34.5 9 34.8358 9 35.25V37.5C9 39.1568 10.3431 40.5 12 40.5H16.77C17.0795 41.3754 17.6521 42.1336 18.4094 42.6706C19.1667 43.2076 20.0716 43.4974 21 43.5H24C25.1934 43.5 26.338 43.0258 27.182 42.182C28.0258 41.338 28.5 40.1934 28.5 39C28.5 37.8066 28.0258 36.662 27.182 35.818C26.338 34.9742 25.1934 34.5 24 34.5H21C20.0716 34.5026 19.1667 34.7924 18.4094 35.3294C17.6521 35.8664 17.0795 36.6246 16.77 37.5H13.5C12.6716 37.5 12 36.8284 12 36C12 35.1716 12.6716 34.5 13.5 34.5C14.3284 34.5 15 33.8284 15 33V16.38C15 14.7894 13.7106 13.5 12.12 13.5C12.4746 11.4019 13.5612 9.49726 15.1869 8.12424C16.8125 6.75122 18.8721 5.9986 21 6H27.165C29.28 6.01626 31.3216 6.77686 32.9318 8.14834C34.5418 9.5198 35.6176 11.4145 35.97 13.5C34.3298 13.5 33 14.8297 33 16.47V30.75C33 32.821 34.679 34.5 36.75 34.5C38.821 34.5 40.5 32.821 40.5 30.75V14.4446C40.5 13.9229 40.077 13.5 39.5554 13.5C39.238 13.5 38.972 13.2635 38.9178 12.9508C38.4526 10.2664 37.0862 7.81384 35.0354 6.0036C32.8456 4.07058 30.026 3.00264 27.105 3Z" fill="#C3D9FA"/>
</svg>
