<svg width="48" height="48" viewBox="0 0 48 48" fill="none" xmlns="http://www.w3.org/2000/svg">
<path fill-rule="evenodd" clip-rule="evenodd" d="M42 11C42 14.866 38.866 18 35 18C31.134 18 28 14.866 28 11C28 7.134 31.134 4 35 4C38.866 4 42 7.134 42 11ZM42 35C42 38.866 38.866 42 35 42C31.134 42 28 38.866 28 35C28 31.134 31.134 28 35 28C38.866 28 42 31.134 42 35ZM11 42C14.866 42 18 38.866 18 35C18 31.134 14.866 28 11 28C7.134 28 4 31.134 4 35C4 38.866 7.134 42 11 42ZM18 11C18 14.866 14.866 18 11 18C7.134 18 4 14.866 4 11C4 7.134 7.134 4 11 4C14.866 4 18 7.134 18 11Z" fill="#C3D9FA"/>
<path d="M33 20C31.1434 20 29.363 19.2625 28.0502 17.9497C26.7374 16.637 26 14.8565 26 13C26.0194 12.4734 25.6212 12 25.0944 12H20.9056C20.3788 12 19.9806 12.4734 20 13C20 14.8565 19.2625 16.637 17.9497 17.9497C16.637 19.2625 14.8565 20 13 20C12.4734 19.9806 12 20.3788 12 20.9056V25.0944C12 25.6212 12.4734 26.0194 13 26C14.8565 26 16.637 26.7374 17.9497 28.0502C19.2625 29.363 20 31.1434 20 33C19.9806 33.5266 20.3788 34 20.9056 34H25.0944C25.6212 34 26.0194 33.5266 26 33C26 31.1434 26.7374 29.363 28.0502 28.0502C29.363 26.7374 31.1434 26 33 26C33.5266 26.0194 34 25.6212 34 25.0944V20.9056C34 20.3788 33.5266 19.9806 33 20ZM23 28C22.011 28 21.0444 27.7068 20.2222 27.1574C19.3999 26.608 18.759 25.827 18.3806 24.9134C18.0022 23.9998 17.9031 22.9944 18.0961 22.0246C18.289 21.0546 18.7652 20.1638 19.4645 19.4645C20.1638 18.7652 21.0546 18.289 22.0246 18.0961C22.9944 17.9031 23.9998 18.0022 24.9134 18.3806C25.827 18.759 26.608 19.3999 27.1574 20.2222C27.7068 21.0444 28 22.011 28 23C28 24.326 27.4732 25.5978 26.5356 26.5356C25.5978 27.4732 24.326 28 23 28Z" fill="#3F86F0"/>
<path d="M23 27C25.2092 27 27 25.2092 27 23C27 20.7908 25.2092 19 23 19C20.7908 19 19 20.7908 19 23C19 25.2092 20.7908 27 23 27Z" fill="#C3D9FA"/>
</svg>
