<svg width="48" height="48" viewBox="0 0 48 48" fill="none" xmlns="http://www.w3.org/2000/svg">
<mask id="mask0_301_4009" style="mask-type:luminance" maskUnits="userSpaceOnUse" x="12" y="8" width="26" height="33">
<path d="M38 8H12V41H38V8Z" fill="white"/>
</mask>
<g mask="url(#mask0_301_4009)">
<path d="M32.12 7.99997H17.88C17.7697 7.99459 17.6593 8.01103 17.5554 8.04835C17.4514 8.08567 17.3558 8.14313 17.274 8.21743C17.1923 8.29175 17.126 8.38145 17.079 8.48141C17.032 8.58137 17.0051 8.68963 17 8.79997V15.2C17.0051 15.3103 17.032 15.4186 17.079 15.5186C17.126 15.6185 17.1923 15.7082 17.274 15.7825C17.3558 15.8568 17.4514 15.9143 17.5554 15.9516C17.6593 15.9889 17.7697 16.0054 17.88 16H32.12C32.2304 16.0054 32.3406 15.9889 32.4446 15.9516C32.5486 15.9143 32.6442 15.8568 32.726 15.7825C32.8076 15.7082 32.874 15.6185 32.921 15.5186C32.968 15.4186 32.9948 15.3103 33 15.2V8.79997C32.9948 8.68963 32.968 8.58137 32.921 8.48141C32.874 8.38145 32.8076 8.29175 32.726 8.21743C32.6442 8.14313 32.5486 8.08567 32.4446 8.04835C32.3406 8.01103 32.2304 7.99459 32.12 7.99997Z" fill="#3F86F0"/>
<path d="M37 11H34V16C34 16.2652 33.8946 16.5196 33.7072 16.7071C33.5196 16.8946 33.2652 17 33 17H17C16.7348 17 16.4804 16.8946 16.2929 16.7071C16.1054 16.5196 16 16.2652 16 16V11H13C12.7348 11 12.4804 11.1054 12.2929 11.2929C12.1054 11.4804 12 11.7348 12 12V40C12 40.2652 12.1054 40.5196 12.2929 40.7072C12.4804 40.8946 12.7348 41 13 41H37C37.2652 41 37.5196 40.8946 37.7072 40.7072C37.8946 40.5196 38 40.2652 38 40V12C38 11.7348 37.8946 11.4804 37.7072 11.2929C37.5196 11.1054 37.2652 11 37 11ZM29 35H17C16.7348 35 16.4804 34.8946 16.2929 34.7072C16.1054 34.5196 16 34.2652 16 34C16 33.7348 16.1054 33.4804 16.2929 33.2928C16.4804 33.1054 16.7348 33 17 33H29C29.2652 33 29.5196 33.1054 29.7072 33.2928C29.8946 33.4804 30 33.7348 30 34C30 34.2652 29.8946 34.5196 29.7072 34.7072C29.5196 34.8946 29.2652 35 29 35ZM16 28C16 27.7348 16.1054 27.4804 16.2929 27.2928C16.4804 27.1054 16.7348 27 17 27H27C27.2652 27 27.5196 27.1054 27.7072 27.2928C27.8946 27.4804 28 27.7348 28 28C28 28.2652 27.8946 28.5196 27.7072 28.7072C27.5196 28.8946 27.2652 29 27 29H17C16.7348 29 16.4804 28.8946 16.2929 28.7072C16.1054 28.5196 16 28.2652 16 28ZM33 23H17C16.7348 23 16.4804 22.8946 16.2929 22.7072C16.1054 22.5196 16 22.2652 16 22C16 21.7348 16.1054 21.4804 16.2929 21.2928C16.4804 21.1054 16.7348 21 17 21H33C33.2652 21 33.5196 21.1054 33.7072 21.2928C33.8946 21.4804 34 21.7348 34 22C34 22.2652 33.8946 22.5196 33.7072 22.7072C33.5196 22.8946 33.2652 23 33 23Z" fill="#C3D9FA"/>
</g>
</svg>
