<svg width="168" height="144" viewBox="0 0 168 144" fill="none" xmlns="http://www.w3.org/2000/svg">
<path d="M105.068 48.1375C105.959 45.563 108.171 43.5412 111.433 43.3588L120.074 42.8758C120.074 42.8758 120.074 42.8758 120.075 42.8758C120.075 42.8758 120.075 42.8758 120.075 42.8758C120.675 42.8424 121.267 42.7709 121.849 42.6638L128.422 41.4535L123.683 36.7403L95.8479 9.05264C95.8462 9.05091 95.8445 9.04918 95.8427 9.04745C93.7515 6.95378 91.2823 5.49459 88.4677 4.74041C85.6549 3.98674 82.7887 4.01522 79.9329 4.78167L65.6707 8.5121L59.7544 10.0596L64.0853 14.3769L99.2899 49.4715L103.243 53.412L105.068 48.1375ZM75.164 72.7064L73.2133 73.23L72.6906 75.1809L57.3229 132.534L55.7573 138.377L61.603 136.822L112.255 123.354L112.266 123.351C115.112 122.585 117.604 121.191 119.662 119.156L119.663 119.155C121.732 117.108 123.142 114.609 123.905 111.743C123.905 111.741 123.905 111.74 123.906 111.738L129.298 91.6136L130.162 88.3892L126.982 87.3736C124.32 86.5234 122.212 84.2799 122.025 80.9526L118.531 81.1487L122.025 80.9526L121.541 72.3126C121.541 72.3124 121.541 72.3121 121.541 72.3119C121.347 68.8467 119.891 65.6122 117.508 63.184L116.077 61.725L114.103 62.2549L75.164 72.7064ZM45.6928 132.559L49.9781 136.828L51.5437 130.985L66.9114 73.6324L67.4341 71.6815L66.0066 70.2527L23.6116 27.8215L19.3247 23.531L17.7549 29.3895L4.27668 79.6909C3.50932 82.5548 3.48271 85.4239 4.25084 88.2306L4.251 88.2312C5.01506 91.0211 6.47311 93.4733 8.55019 95.5591L8.56013 95.569L45.6928 132.559ZM70.2269 66.0727L71.6478 67.4892L73.5882 66.9788L95.0975 61.3215L100.977 59.7751L96.6874 55.4671L54.721 13.3187L53.2948 11.8863L51.3414 12.4057L29.6334 18.178L23.7513 19.7421L28.0618 24.0392L70.2269 66.0727ZM147.763 33.8544C147.429 27.9127 139.704 25.8427 136.444 30.8217L127.969 43.7681L112.514 44.632C106.571 44.9641 104.501 52.6896 109.482 55.9489L122.434 64.4244L123.301 79.8741C123.634 85.8158 131.36 87.8858 134.619 82.9068L143.095 69.9604L158.549 69.0966C164.493 68.7644 166.563 61.0389 161.582 57.7796L148.63 49.3041L147.763 33.8544Z" fill="#C3D9FA" stroke="#7EAEF5" stroke-width="7"/>
</svg>
