<svg width="270" height="240" viewBox="0 0 270 240" fill="none" xmlns="http://www.w3.org/2000/svg">
<ellipse cx="9" cy="8" rx="9" ry="8" fill="#ECF3FE"/>
<ellipse cx="9" cy="136" rx="9" ry="8" fill="#ECF3FE"/>
<ellipse cx="9" cy="72" rx="9" ry="8" fill="#ECF3FE"/>
<ellipse cx="9" cy="200" rx="9" ry="8" fill="#ECF3FE"/>
<ellipse cx="9" cy="40" rx="9" ry="8" fill="#ECF3FE"/>
<ellipse cx="9" cy="168" rx="9" ry="8" fill="#ECF3FE"/>
<ellipse cx="9" cy="104" rx="9" ry="8" fill="#ECF3FE"/>
<ellipse cx="9" cy="232" rx="9" ry="8" fill="#ECF3FE"/>
<ellipse cx="45" cy="8" rx="9" ry="8" fill="#ECF3FE"/>
<ellipse cx="45" cy="136" rx="9" ry="8" fill="#ECF3FE"/>
<ellipse cx="45" cy="72" rx="9" ry="8" fill="#ECF3FE"/>
<ellipse cx="45" cy="200" rx="9" ry="8" fill="#ECF3FE"/>
<ellipse cx="45" cy="40" rx="9" ry="8" fill="#ECF3FE"/>
<ellipse cx="45" cy="168" rx="9" ry="8" fill="#ECF3FE"/>
<ellipse cx="45" cy="104" rx="9" ry="8" fill="#ECF3FE"/>
<ellipse cx="45" cy="232" rx="9" ry="8" fill="#ECF3FE"/>
<ellipse cx="81" cy="8" rx="9" ry="8" fill="#ECF3FE"/>
<ellipse cx="81" cy="136" rx="9" ry="8" fill="#ECF3FE"/>
<ellipse cx="81" cy="72" rx="9" ry="8" fill="#ECF3FE"/>
<ellipse cx="81" cy="200" rx="9" ry="8" fill="#ECF3FE"/>
<ellipse cx="81" cy="40" rx="9" ry="8" fill="#ECF3FE"/>
<ellipse cx="81" cy="168" rx="9" ry="8" fill="#ECF3FE"/>
<ellipse cx="81" cy="104" rx="9" ry="8" fill="#ECF3FE"/>
<ellipse cx="81" cy="232" rx="9" ry="8" fill="#ECF3FE"/>
<ellipse cx="117" cy="8" rx="9" ry="8" fill="#ECF3FE"/>
<ellipse cx="117" cy="136" rx="9" ry="8" fill="#ECF3FE"/>
<ellipse cx="117" cy="72" rx="9" ry="8" fill="#ECF3FE"/>
<ellipse cx="117" cy="200" rx="9" ry="8" fill="#ECF3FE"/>
<ellipse cx="117" cy="40" rx="9" ry="8" fill="#ECF3FE"/>
<ellipse cx="117" cy="168" rx="9" ry="8" fill="#ECF3FE"/>
<ellipse cx="117" cy="104" rx="9" ry="8" fill="#ECF3FE"/>
<ellipse cx="117" cy="232" rx="9" ry="8" fill="#ECF3FE"/>
<ellipse cx="153" cy="8" rx="9" ry="8" fill="#ECF3FE"/>
<ellipse cx="153" cy="72" rx="9" ry="8" fill="#ECF3FE"/>
<ellipse cx="153" cy="40" rx="9" ry="8" fill="#ECF3FE"/>
<ellipse cx="153" cy="104" rx="9" ry="8" fill="#ECF3FE"/>
<ellipse cx="189" cy="8" rx="9" ry="8" fill="#ECF3FE"/>
<ellipse cx="189" cy="72" rx="9" ry="8" fill="#ECF3FE"/>
<ellipse cx="189" cy="40" rx="9" ry="8" fill="#ECF3FE"/>
<ellipse cx="189" cy="104" rx="9" ry="8" fill="#ECF3FE"/>
<ellipse cx="225" cy="8" rx="9" ry="8" fill="#ECF3FE"/>
<ellipse cx="225" cy="72" rx="9" ry="8" fill="#ECF3FE"/>
<ellipse cx="225" cy="40" rx="9" ry="8" fill="#ECF3FE"/>
<ellipse cx="225" cy="104" rx="9" ry="8" fill="#ECF3FE"/>
<ellipse cx="261" cy="8" rx="9" ry="8" fill="#ECF3FE"/>
<ellipse cx="261" cy="72" rx="9" ry="8" fill="#ECF3FE"/>
<ellipse cx="261" cy="40" rx="9" ry="8" fill="#ECF3FE"/>
<ellipse cx="261" cy="104" rx="9" ry="8" fill="#ECF3FE"/>
</svg>
