<svg width="1170" height="1170" viewBox="0 0 1170 1170" fill="none" xmlns="http://www.w3.org/2000/svg">
<path fill-rule="evenodd" clip-rule="evenodd" d="M1071.41 259.992C1135.69 356.194 1170 469.298 1170 585H1053C1053 492.439 1025.55 401.956 974.128 324.993C922.703 248.031 849.612 188.046 764.096 152.625C678.58 117.203 584.481 107.935 493.698 125.993C402.915 144.051 319.525 188.623 254.074 254.074C188.623 319.525 144.051 402.915 125.993 493.698C107.935 584.481 117.203 678.58 152.625 764.096C188.046 849.612 248.031 922.704 324.993 974.128C397.793 1022.77 482.69 1049.96 570 1052.76V1169.81C459.544 1166.98 352.033 1132.91 259.992 1071.41C163.789 1007.13 88.808 915.765 44.5307 808.87C0.253471 701.975 -11.3315 584.351 11.2409 470.872C33.8132 357.394 89.5291 253.157 171.343 171.343C253.157 89.5291 357.394 33.8132 470.872 11.2409C584.351 -11.3315 701.975 0.253469 808.87 44.5307C915.765 88.808 1007.13 163.789 1071.41 259.992Z" fill="url(#paint0_linear_109_1952)"/>
<defs>
<linearGradient id="paint0_linear_109_1952" x1="585" y1="0.000259399" x2="585" y2="1170" gradientUnits="userSpaceOnUse">
<stop offset="0.480044" stop-color="#4187EF" stop-opacity="0"/>
<stop offset="0.637224" stop-color="#4187EF"/>
<stop offset="0.89113" stop-color="#4187EF" stop-opacity="0"/>
</linearGradient>
</defs>
</svg>
