<svg width="1170" height="1164" viewBox="0 0 1170 1164" fill="none" xmlns="http://www.w3.org/2000/svg">
<path fill-rule="evenodd" clip-rule="evenodd" d="M670 1163.79C755.516 1151.23 837.555 1119.82 910.009 1071.41C1006.21 1007.13 1081.19 915.765 1125.47 808.87C1169.75 701.975 1181.33 584.351 1158.76 470.872C1136.19 357.394 1080.47 253.157 998.658 171.343C916.844 89.5291 812.607 33.8133 699.128 11.2409C585.649 -11.3315 468.025 0.253458 361.13 44.5307C254.235 88.808 162.871 163.789 98.5903 259.992C34.3097 356.194 1.74705e-05 469.298 0 585H117C117 492.439 144.448 401.956 195.872 324.993C247.297 248.031 320.388 188.046 405.904 152.625C491.42 117.203 585.519 107.935 676.302 125.993C767.085 144.051 850.475 188.623 915.926 254.074C981.377 319.525 1025.95 402.915 1044.01 493.698C1062.07 584.481 1052.8 678.58 1017.38 764.096C981.954 849.612 921.969 922.704 845.007 974.128C791.862 1009.64 732.271 1033.72 670 1045.22V1163.79Z" fill="url(#paint0_linear_109_1949)"/>
<defs>
<linearGradient id="paint0_linear_109_1949" x1="207" y1="-41.2866" x2="581.463" y2="1165.08" gradientUnits="userSpaceOnUse">
<stop offset="0.438968" stop-color="#4187EF" stop-opacity="0"/>
<stop offset="0.751712" stop-color="#4187EF"/>
<stop offset="0.902239" stop-color="#4187EF" stop-opacity="0"/>
<stop offset="1" stop-color="#4187EF" stop-opacity="0"/>
</linearGradient>
</defs>
</svg>
