<svg xmlns="http://www.w3.org/2000/svg" viewBox="0 0 124.54 111.11"><defs><style>.cls-1{fill:#3f86f0;}</style></defs><title>Asset 3</title><g id="Layer_2" data-name="Layer 2"><g id="Layer_1-2" data-name="Layer 1"><path class="cls-1" d="M56.33,1.55l29.56,17a10.12,10.12,0,0,1-1.08.43L77.67,21.3a9.06,9.06,0,0,0-6.34,8.1L33.94,7.89,45.07,1.55a11,11,0,0,1,11.26,0Z"/><path class="cls-1" d="M56.33,59.57,86.62,42.06a9.22,9.22,0,0,1,4.09,5.08l2.35,7.14a9.08,9.08,0,0,0,8.34,6.35V78.72a11,11,0,0,1-1.48,5.64,11.16,11.16,0,0,1-4.16,4.08L56.33,111.11Z"/><path class="cls-1" d="M45.07,111.11V59.57L0,33.52v45.2a11,11,0,0,0,1.48,5.64,11.21,11.21,0,0,0,4.15,4.08Z"/><path class="cls-1" d="M50.7,49.85l16.76-9.57L22.81,14.36,5.91,24.08Z"/><path class="cls-1" d="M99.65,9a2.32,2.32,0,0,1,4.4,0l4.31,13.11a2.31,2.31,0,0,0,1.48,1.47L123,27.89a2.32,2.32,0,0,1,0,4.4L109.84,36.6a2.32,2.32,0,0,0-1.48,1.48l-4.31,13.11a2.32,2.32,0,0,1-4.4,0L95.34,38.08a2.31,2.31,0,0,0-1.47-1.48L80.76,32.29a2.32,2.32,0,0,1,0-4.4l13.11-4.31a2.29,2.29,0,0,0,1.47-1.47Z"/></g></g></svg>